<?xml version="1.0" encoding="utf-8"?>
<svg id="master-artboard" viewBox="0 0 1400 980" version="1.1" xmlns="http://www.w3.org/2000/svg" x="0px" y="0px" style="enable-background:new 0 0 1400 980;" width="1400px" height="980px">

<pattern width="641.4" height="563.1" patternUnits="userSpaceOnUse" id="New_Pattern_2" viewBox="83.1 -625 641.4 563.1" style="overflow:visible;">
	<g>
		<path d="M 83.0999984741211 -625 L 724.5999755859375 -625 L 724.5999755859375 -61.79999923706055 L 83.0999984741211 -61.79999923706055 Z" class="st0" style="fill: none;"/>
		<g>
			<path class="st1" d="M645-0.7c23.4,5.1,40.7-20.7,36-42c-1.5-7-7.1-14.1-14.6-14.6c-8.3-0.6-13.1,7.1-14.7,14.3&#10;&#9;&#9;&#9;&#9;c-4.3,19.1,16.9,34.3,33.7,36.2c9.1,1,19.1-1.7,25.2-9c4.7-5.6,6.2-13.5,7-20.5c1.1-9.6,1-24.6-7.9-30.8&#10;&#9;&#9;&#9;&#9;c-9.1-6.3-21.6,3.2-22.3,13c-0.7,11.4,12.8,19.3,21.7,22.8c13,5,28.3,3.3,38.6-6.6c4.7-4.5-2.4-11.5-7.1-7.1&#10;&#9;&#9;&#9;&#9;c-11,10.5-32.9,7.4-41.6-4.9c-2.6-3.7-1.4-8.7,3.9-9.2c0.6-0.1,0.9,0,1.1,0.2c0.9,0.7,1.3,1.5,1.8,2.6c1.5,2.8,1.8,6.4,2,9.5&#10;&#9;&#9;&#9;&#9;c0.5,7-0.1,15-3,21.4c-3.4,7.6-12.7,9.7-20.4,8.4c-8.8-1.6-17.4-7.1-21.8-15c-1.8-3.2-2.2-16.1,2.9-15.3&#10;&#9;&#9;&#9;&#9;c6.8,1.1,6.5,12.4,5.5,17.1c-2.4,11.1-10.9,22.7-23.5,20C641.4-11.7,638.7-2,645-0.7L645-0.7z" style="fill: rgb(139, 147, 153);"/>
		</g>
		<g>
			<path class="st1" d="M3.6-0.7c23.4,5.1,40.7-20.7,36-42c-1.5-7-7.1-14.1-14.6-14.6c-8.3-0.6-13.1,7.1-14.7,14.3&#10;&#9;&#9;&#9;&#9;C6-23.9,27.3-8.7,44-6.9c9.1,1,19.1-1.7,25.2-9c4.7-5.6,6.2-13.5,7-20.5c1.1-9.6,1-24.6-7.9-30.8c-9.1-6.3-21.6,3.2-22.3,13&#10;&#9;&#9;&#9;&#9;c-0.7,11.4,12.8,19.3,21.7,22.8c13,5,28.3,3.3,38.6-6.6c4.7-4.5-2.4-11.5-7.1-7.1c-11,10.5-32.9,7.4-41.6-4.9&#10;&#9;&#9;&#9;&#9;c-2.6-3.7-1.4-8.7,3.9-9.2c0.6-0.1,0.9,0,1.1,0.2c0.9,0.7,1.3,1.5,1.8,2.6c1.5,2.8,1.8,6.4,2,9.5c0.5,7-0.1,15-3,21.4&#10;&#9;&#9;&#9;&#9;c-3.4,7.6-12.7,9.7-20.4,8.4c-8.8-1.6-17.4-7.1-21.8-15c-1.8-3.2-2.2-16.1,2.9-15.3c6.8,1.1,6.5,12.4,5.5,17.1&#10;&#9;&#9;&#9;&#9;c-2.4,11.1-10.9,22.7-23.5,20C0-11.7-2.7-2,3.6-0.7L3.6-0.7z" style="fill: rgb(139, 147, 153);"/>
		</g>
		<g>
			<path class="st2" d="M712.9-201.2c-10-0.7-19.9,2.4-26.6,10.1c-6.7,7.6-7.9,17.9-5.8,27.5c2.6,12.1,12.6,20.9,13,33.9&#10;&#9;&#9;&#9;&#9;c0.4,12.8-12.1,17.9-22.9,19.2c-5.6,0.6-5.2,9.4,0.4,8.7c11.2-1.3,22.4-5.2,28.3-15.5c5.5-9.8,2.4-21.7-2-31.2&#10;&#9;&#9;&#9;&#9;c-2.7-5.7-6.4-10.5-8.1-16.6c-1.3-4.7-1.3-10.1,0.5-14.7c3.8-9.8,14-13.4,23.8-12.6C718.9-192,718.5-200.7,712.9-201.2&#10;&#9;&#9;&#9;&#9;L712.9-201.2z" style="fill: rgb(169, 220, 220);"/>
			<path class="st3" d="M598.4-248.1c-2,21-3.9,42-5.9,63c-0.4,4,4.5,6,7.5,4.3c20.6-11.2,41.3-22.4,61.9-33.6&#10;&#9;&#9;&#9;&#9;c3.2-1.7,3.3-6.9,0-8.6c-18.7-9.8-37.3-19.6-56-29.4c-5.7-3-10.8,5.6-5,8.6c18.7,9.8,37.3,19.6,56,29.4c0-2.9,0-5.8,0-8.6&#10;&#9;&#9;&#9;&#9;c-20.6,11.2-41.3,22.4-61.9,33.6c2.5,1.4,5,2.9,7.5,4.3c2-21,3.9-42,5.9-63C609-254.5,599-254.4,598.4-248.1z" style="fill: rgb(128, 197, 106);"/>
			<path class="st4" d="M577.8-125.1c-7.9,19.8-2.1,43.7,18.4,53.1c19.1,8.7,38.5-3.8,45.1-22.4c3.1-8.9,1.6-19-5.1-25.8&#10;&#9;&#9;&#9;&#9;c-6.6-6.7-16.5-10.6-25.7-7.4c-14.9,5.2-20.8,27.7-4.3,34.9c0.7,0.3,1.4,0.6,2.2,0.9c6.1,2.2,8.7-7.4,2.7-9.6&#10;&#9;&#9;&#9;&#9;c-10.1-3.7-2.8-15.5,4.7-17.2c6-1.4,13.1,3.9,15.8,8.8c3.1,5.6,0.5,13-2.3,18c-6.7,11.8-19.9,16.3-31.7,9.3&#10;&#9;&#9;&#9;&#9;c-14.2-8.3-15.7-25.8-10-39.8C589.9-128.4,580.2-131,577.8-125.1L577.8-125.1z" style="fill: rgb(233, 190, 149);"/>
			<path class="st1" d="M645-282.2c23.4,5.1,40.7-20.7,36-42c-1.5-7-7.1-14.1-14.6-14.6c-8.3-0.6-13.1,7.1-14.7,14.3&#10;&#9;&#9;&#9;&#9;c-4.3,19.1,16.9,34.3,33.7,36.2c9.1,1,19.1-1.7,25.2-9c4.7-5.6,6.2-13.5,7-20.5c1.1-9.6,1-24.6-7.9-30.8&#10;&#9;&#9;&#9;&#9;c-9.1-6.3-21.6,3.2-22.3,13c-0.7,11.4,12.8,19.3,21.7,22.8c13,5,28.3,3.3,38.6-6.6c4.7-4.5-2.4-11.5-7.1-7.1&#10;&#9;&#9;&#9;&#9;c-11,10.5-32.9,7.4-41.6-4.9c-2.6-3.7-1.4-8.7,3.9-9.2c0.6-0.1,0.9,0,1.1,0.2c0.9,0.7,1.3,1.5,1.8,2.6c1.5,2.8,1.8,6.4,2,9.5&#10;&#9;&#9;&#9;&#9;c0.5,7-0.1,15-3,21.4c-3.4,7.6-12.7,9.7-20.4,8.4c-8.8-1.6-17.4-7.1-21.8-15c-1.8-3.2-2.2-16.1,2.9-15.3&#10;&#9;&#9;&#9;&#9;c6.8,1.1,6.5,12.4,5.5,17.1c-2.4,11.1-10.9,22.7-23.5,20C641.4-293.2,638.7-283.6,645-282.2L645-282.2z" style="fill: rgb(139, 147, 153);"/>
			<path class="st5" d="M538.2-281.5c4.5,0.5,8.9,3.5,12.6,5.9c6,3.9,11.2,9,15.8,14.3c0.7-2.8,1.5-5.6,2.2-8.4&#10;&#9;&#9;&#9;&#9;c-13.6,3.4-27.8,0.2-41.6,2.7c-3,0.5-4.8,4.8-3,7.3c8,11.4,18.5,21.1,25,33.4c1.4-2.5,2.9-5,4.3-7.5c-13.3,0.9-26.2-2.3-39.5-2.4&#10;&#9;&#9;&#9;&#9;c-3,0-6,3.3-4.8,6.3c5.3,13.4,15.3,21.2,25,31.3c4.5,4.7,11.5-2.4,7.1-7.1c-8.2-8.6-17.9-15.4-22.4-26.9&#10;&#9;&#9;&#9;&#9;c-1.6,2.1-3.2,4.2-4.8,6.3c13.3,0.2,26.1,3.3,39.5,2.4c3.8-0.3,6.2-4,4.3-7.5c-6.6-12.4-17-22-25-33.4c-1,2.4-2,4.9-3,7.3&#10;&#9;&#9;&#9;&#9;c13.8-2.5,27.9,0.7,41.6-2.7c3.9-1,4.6-5.6,2.2-8.4c-8.9-10.3-21.4-21.4-35.5-23.1C531.8-292.2,531.9-282.2,538.2-281.5&#10;&#9;&#9;&#9;&#9;L538.2-281.5z" style="fill: rgb(243, 127, 113);"/>
		</g>
		<g>
			<path class="st6" d="M503.4-46.6c16.8,4.1,35.2-0.2,50.9-6.5c3.1-1.2,4.6-4.3,3-7.3c-8.1-15.4-21.2-30.1-36.1-39.1&#10;&#9;&#9;&#9;&#9;c-1.8-1.1-4.6-0.9-6.1,0.8c-11.4,13.3-13.3,30.5-15.4,47.3c-0.8,6.4,9.2,6.3,10,0c1.7-13.8,3.1-29.2,12.5-40.2&#10;&#9;&#9;&#9;&#9;c-2,0.3-4,0.5-6.1,0.8c13.5,8.1,25.2,21.5,32.5,35.5c1-2.4,2-4.9,3-7.3c-14,5.6-30.6,10.1-45.6,6.5&#10;&#9;&#9;&#9;&#9;C499.8-57.8,497.1-48.1,503.4-46.6L503.4-46.6z" style="fill: rgb(239, 189, 188);"/>
			<path class="st3" d="M277.7-107.3c-2,21-3.9,42-5.9,63c-0.4,4,4.5,6,7.5,4.3c20.6-11.2,41.3-22.4,61.9-33.6&#10;&#9;&#9;&#9;&#9;c3.2-1.7,3.3-6.9,0-8.6c-18.7-9.8-37.3-19.6-56-29.4c-5.7-3-10.8,5.6-5,8.6c18.7,9.8,37.3,19.6,56,29.4c0-2.9,0-5.8,0-8.6&#10;&#9;&#9;&#9;&#9;c-20.6,11.2-41.3,22.4-61.9,33.6c2.5,1.4,5,2.9,7.5,4.3c2-21,3.9-42,5.9-63C288.3-113.7,278.3-113.6,277.7-107.3z" style="fill: rgb(128, 197, 106);"/>
			<path class="st7" d="M423.9-70c0-12.7,0-25.3,0-38c-2.5,1.4-5,2.9-7.5,4.3c11.9,5.9,23.8,11.9,36.2,16.5c2.3,0.9,5.8-0.9,6.2-3.5&#10;&#9;&#9;&#9;&#9;c1.9-13.5,0.3-26.8,0.2-40.3c0-6.4-10-6.5-10,0c0.1,12.5,1.9,25.2,0.2,37.7c2.1-1.2,4.1-2.3,6.2-3.5c-11.6-4.3-22.7-10-33.8-15.5&#10;&#9;&#9;&#9;&#9;c-3.3-1.7-7.5,0.3-7.5,4.3c0,12.7,0,25.3,0,38C413.9-63.5,423.9-63.5,423.9-70L423.9-70z" style="fill: rgb(250, 164, 67);"/>
			<path class="st1" d="M324.3-141.4c23.4,5.1,40.7-20.7,36-42c-1.5-7-7.1-14.1-14.6-14.6c-8.3-0.6-13.1,7.1-14.7,14.3&#10;&#9;&#9;&#9;&#9;c-4.3,19.1,16.9,34.3,33.7,36.2c9.1,1,19.1-1.7,25.2-9c4.7-5.6,6.2-13.5,7-20.5c1.1-9.6,1-24.6-7.9-30.8&#10;&#9;&#9;&#9;&#9;c-9.1-6.3-21.6,3.2-22.3,13c-0.7,11.4,12.8,19.3,21.7,22.8c13,5,28.3,3.3,38.6-6.6c4.7-4.5-2.4-11.5-7.1-7.1&#10;&#9;&#9;&#9;&#9;c-11,10.5-32.9,7.4-41.6-4.9c-2.6-3.7-1.4-8.7,3.9-9.2c0.6-0.1,0.9,0,1.1,0.2c0.9,0.7,1.3,1.5,1.8,2.6c1.5,2.8,1.8,6.4,2,9.5&#10;&#9;&#9;&#9;&#9;c0.5,7-0.1,15-3,21.4c-3.4,7.6-12.7,9.7-20.4,8.4c-8.8-1.6-17.4-7.1-21.8-15c-1.8-3.2-2.2-16.1,2.9-15.3&#10;&#9;&#9;&#9;&#9;c6.8,1.1,6.5,12.4,5.5,17.1c-2.4,11.1-10.9,22.7-23.5,20C320.7-152.4,318-142.8,324.3-141.4L324.3-141.4z" style="fill: rgb(139, 147, 153);"/>
			<path class="st5" d="M217.5-140.7c4.5,0.5,8.9,3.5,12.6,5.9c6,3.9,11.2,9,15.8,14.3c0.7-2.8,1.5-5.6,2.2-8.4&#10;&#9;&#9;&#9;&#9;c-13.6,3.4-27.8,0.2-41.6,2.7c-3,0.5-4.8,4.8-3,7.3c8,11.4,18.5,21.1,25,33.4c1.4-2.5,2.9-5,4.3-7.5c-13.3,0.9-26.2-2.3-39.5-2.4&#10;&#9;&#9;&#9;&#9;c-3,0-6,3.3-4.8,6.3c5.3,13.4,15.3,21.2,25,31.3c4.5,4.7,11.5-2.4,7.1-7.1c-8.2-8.6-17.9-15.4-22.4-26.9&#10;&#9;&#9;&#9;&#9;c-1.6,2.1-3.2,4.2-4.8,6.3c13.3,0.2,26.1,3.3,39.5,2.4c3.8-0.3,6.2-4,4.3-7.5c-6.6-12.4-17-22-25-33.4c-1,2.4-2,4.9-3,7.3&#10;&#9;&#9;&#9;&#9;c13.8-2.5,27.9,0.7,41.6-2.7c3.9-1,4.6-5.6,2.2-8.4c-8.9-10.3-21.4-21.4-35.5-23.1C211.1-151.5,211.1-141.5,217.5-140.7&#10;&#9;&#9;&#9;&#9;L217.5-140.7z" style="fill: rgb(243, 127, 113);"/>
			<path class="st8" d="M463.7-171.5c1.2-3.7,6.9-6.1,10.2-7.4c4.3-1.6,9.3-2.8,12.7,0.9c4.4,4.8,2.2,12.5,2.3,18.3&#10;&#9;&#9;&#9;&#9;c0.1,6.7,3.4,13.9,9.2,17.7c8.7,5.8,19-1.2,27.4-4.2c5.3-2,8.1-1.8,11.5,3c4.5,6.2,0.8,13-2.4,18.9c-3.1,5.7,5.5,10.7,8.6,5&#10;&#9;&#9;&#9;&#9;c3.5-6.4,7.1-13.7,5.5-21.2c-1.5-7.1-6.8-14.8-14.2-16.6c-5.8-1.4-11.7,1.2-16.9,3.4c-3.1,1.3-10.9,6.2-14.2,3.4&#10;&#9;&#9;&#9;&#9;c-6.9-5.7-3.7-14.5-4.4-22.2c-0.7-7.5-5.3-14.9-12.6-17.2c-10.8-3.4-28.9,4.5-32.4,15.6C452.1-168,461.7-165.4,463.7-171.5&#10;&#9;&#9;&#9;&#9;L463.7-171.5z" style="fill: rgb(238, 225, 195);"/>
		</g>
		<g>
			<path class="st6" d="M182.7-187.4c16.8,4.1,35.2-0.2,50.9-6.5c3.1-1.2,4.6-4.3,3-7.3c-8.1-15.4-21.2-30.1-36.1-39.1&#10;&#9;&#9;&#9;&#9;c-1.8-1.1-4.6-0.9-6.1,0.8C183-226.2,181.1-209,179-192.2c-0.8,6.4,9.2,6.3,10,0c1.7-13.8,3.1-29.2,12.5-40.2&#10;&#9;&#9;&#9;&#9;c-2,0.3-4,0.5-6.1,0.8c13.5,8.1,25.2,21.5,32.5,35.5c1-2.4,2-4.9,3-7.3c-14,5.6-30.6,10.1-45.6,6.5&#10;&#9;&#9;&#9;&#9;C179.1-198.6,176.4-188.9,182.7-187.4L182.7-187.4z" style="fill: rgb(239, 189, 188);"/>
			<path class="st9" d="M132.3-108.8c-12.4-6.1-20.1-22-15.5-35.3c2.8-8,11.4-12.2,19.4-12c9.4,0.2,19,5.9,25.6,12.3&#10;&#9;&#9;&#9;&#9;c4.6,4.5,11.7-2.6,7.1-7.1c-16.4-15.9-47.7-23.8-60.3,0.9c-9,17.5,1.8,41.5,18.7,49.8C133-97.3,138.1-105.9,132.3-108.8&#10;&#9;&#9;&#9;&#9;L132.3-108.8z" style="fill: rgb(218, 207, 97);"/>
			<path class="st7" d="M103.2-210.7c0-12.7,0-25.3,0-38c-2.5,1.4-5,2.9-7.5,4.3c11.9,5.9,23.8,11.9,36.2,16.5&#10;&#9;&#9;&#9;&#9;c2.3,0.9,5.8-0.9,6.2-3.5c1.9-13.5,0.3-26.8,0.2-40.3c0-6.4-10-6.5-10,0c0.1,12.5,1.9,25.2,0.2,37.7c2.1-1.2,4.1-2.3,6.2-3.5&#10;&#9;&#9;&#9;&#9;c-11.6-4.3-22.7-10-33.8-15.5c-3.3-1.7-7.5,0.3-7.5,4.3c0,12.7,0,25.3,0,38C93.2-204.3,103.2-204.3,103.2-210.7L103.2-210.7z" style="fill: rgb(250, 164, 67);"/>
			<path class="st1" d="M3.6-282.2c23.4,5.1,40.7-20.7,36-42c-1.5-7-7.1-14.1-14.6-14.6c-8.3-0.6-13.1,7.1-14.7,14.3&#10;&#9;&#9;&#9;&#9;C6-305.5,27.3-290.3,44-288.4c9.1,1,19.1-1.7,25.2-9c4.7-5.6,6.2-13.5,7-20.5c1.1-9.6,1-24.6-7.9-30.8c-9.1-6.3-21.6,3.2-22.3,13&#10;&#9;&#9;&#9;&#9;c-0.7,11.4,12.8,19.3,21.7,22.8c13,5,28.3,3.3,38.6-6.6c4.7-4.5-2.4-11.5-7.1-7.1c-11,10.5-32.9,7.4-41.6-4.9&#10;&#9;&#9;&#9;&#9;c-2.6-3.7-1.4-8.7,3.9-9.2c0.6-0.1,0.9,0,1.1,0.2c0.9,0.7,1.3,1.5,1.8,2.6c1.5,2.8,1.8,6.4,2,9.5c0.5,7-0.1,15-3,21.4&#10;&#9;&#9;&#9;&#9;c-3.4,7.6-12.7,9.7-20.4,8.4c-8.8-1.6-17.4-7.1-21.8-15c-1.8-3.2-2.2-16.1,2.9-15.3c6.8,1.1,6.5,12.4,5.5,17.1&#10;&#9;&#9;&#9;&#9;c-2.4,11.1-10.9,22.7-23.5,20C0-293.2-2.7-283.6,3.6-282.2L3.6-282.2z" style="fill: rgb(139, 147, 153);"/>
			<path class="st8" d="M142.9-312.3c1.2-3.7,6.9-6.1,10.2-7.4c4.3-1.6,9.3-2.8,12.7,0.9c4.4,4.8,2.2,12.5,2.3,18.3&#10;&#9;&#9;&#9;&#9;c0.1,6.7,3.4,13.9,9.2,17.7c8.7,5.8,19-1.2,27.4-4.2c5.3-2,8.1-1.8,11.5,3c4.5,6.2,0.8,13-2.4,18.9c-3.1,5.7,5.5,10.7,8.6,5&#10;&#9;&#9;&#9;&#9;c3.5-6.4,7.1-13.7,5.5-21.2c-1.5-7.1-6.8-14.8-14.2-16.6c-5.8-1.4-11.7,1.2-16.9,3.4c-3.1,1.3-10.9,6.2-14.2,3.4&#10;&#9;&#9;&#9;&#9;c-6.9-5.7-3.7-14.5-4.4-22.2c-0.7-7.5-5.3-14.9-12.6-17.2c-10.8-3.4-28.9,4.5-32.4,15.6C131.4-308.8,141-306.2,142.9-312.3&#10;&#9;&#9;&#9;&#9;L142.9-312.3z" style="fill: rgb(238, 225, 195);"/>
		</g>
		<g>
			<path class="st2" d="M712.9-482.7c-10-0.7-19.9,2.4-26.6,10.1c-6.7,7.6-7.9,17.9-5.8,27.5c2.6,12.1,12.6,20.9,13,33.9&#10;&#9;&#9;&#9;&#9;c0.4,12.8-12.1,17.9-22.9,19.2c-5.6,0.6-5.2,9.4,0.4,8.7c11.2-1.3,22.4-5.2,28.3-15.5c5.5-9.8,2.4-21.7-2-31.2&#10;&#9;&#9;&#9;&#9;c-2.7-5.7-6.4-10.5-8.1-16.6c-1.3-4.7-1.3-10.1,0.5-14.7c3.8-9.8,14-13.4,23.8-12.6C718.9-473.6,718.5-482.3,712.9-482.7&#10;&#9;&#9;&#9;&#9;L712.9-482.7z" style="fill: rgb(169, 220, 220);"/>
			<path class="st3" d="M598.4-529.6c-2,21-3.9,42-5.9,63c-0.4,4,4.5,6,7.5,4.3c20.6-11.2,41.3-22.4,61.9-33.6&#10;&#9;&#9;&#9;&#9;c3.2-1.7,3.3-6.9,0-8.6c-18.7-9.8-37.3-19.6-56-29.4c-5.7-3-10.8,5.6-5,8.6c18.7,9.8,37.3,19.6,56,29.4c0-2.9,0-5.8,0-8.6&#10;&#9;&#9;&#9;&#9;c-20.6,11.2-41.3,22.4-61.9,33.6c2.5,1.4,5,2.9,7.5,4.3c2-21,3.9-42,5.9-63C609-536,599-536,598.4-529.6z" style="fill: rgb(128, 197, 106);"/>
			<path class="st4" d="M577.8-406.6c-7.9,19.8-2.1,43.7,18.4,53.1c19.1,8.7,38.5-3.8,45.1-22.4c3.1-8.9,1.6-19-5.1-25.8&#10;&#9;&#9;&#9;&#9;c-6.6-6.7-16.5-10.6-25.7-7.4c-14.9,5.2-20.8,27.7-4.3,34.9c0.7,0.3,1.4,0.6,2.2,0.9c6.1,2.2,8.7-7.4,2.7-9.6&#10;&#9;&#9;&#9;&#9;c-10.1-3.7-2.8-15.5,4.7-17.2c6-1.4,13.1,3.9,15.8,8.8c3.1,5.6,0.5,13-2.3,18c-6.7,11.8-19.9,16.3-31.7,9.3&#10;&#9;&#9;&#9;&#9;c-14.2-8.3-15.7-25.8-10-39.8C589.9-410,580.2-412.5,577.8-406.6L577.8-406.6z" style="fill: rgb(233, 190, 149);"/>
			<path class="st1" d="M645-563.8c23.4,5.1,40.7-20.7,36-42c-1.5-7-7.1-14.1-14.6-14.6c-8.3-0.6-13.1,7.1-14.7,14.3&#10;&#9;&#9;&#9;&#9;c-4.3,19.1,16.9,34.3,33.7,36.2c9.1,1,19.1-1.7,25.2-9c4.7-5.6,6.2-13.5,7-20.5c1.1-9.6,1-24.6-7.9-30.8&#10;&#9;&#9;&#9;&#9;c-9.1-6.3-21.6,3.2-22.3,13c-0.7,11.4,12.8,19.3,21.7,22.8c13,5,28.3,3.3,38.6-6.6c4.7-4.5-2.4-11.5-7.1-7.1&#10;&#9;&#9;&#9;&#9;c-11,10.5-32.9,7.4-41.6-4.9c-2.6-3.7-1.4-8.7,3.9-9.2c0.6-0.1,0.9,0,1.1,0.2c0.9,0.7,1.3,1.5,1.8,2.6c1.5,2.8,1.8,6.4,2,9.5&#10;&#9;&#9;&#9;&#9;c0.5,7-0.1,15-3,21.4c-3.4,7.6-12.7,9.7-20.4,8.3c-8.8-1.6-17.4-7.1-21.8-15c-1.8-3.2-2.2-16.1,2.9-15.3&#10;&#9;&#9;&#9;&#9;c6.8,1.1,6.5,12.4,5.5,17.1c-2.4,11.1-10.9,22.7-23.5,20C641.4-574.8,638.7-565.1,645-563.8L645-563.8z" style="fill: rgb(139, 147, 153);"/>
			<path class="st5" d="M538.2-563c4.5,0.5,8.9,3.5,12.6,5.9c6,3.9,11.2,9,15.8,14.3c0.7-2.8,1.5-5.6,2.2-8.4&#10;&#9;&#9;&#9;&#9;c-13.6,3.4-27.8,0.2-41.6,2.7c-3,0.5-4.8,4.8-3,7.3c8,11.4,18.5,21.1,25,33.4c1.4-2.5,2.9-5,4.3-7.5c-13.3,0.9-26.2-2.3-39.5-2.4&#10;&#9;&#9;&#9;&#9;c-3,0-6,3.3-4.8,6.3c5.3,13.4,15.3,21.2,25,31.3c4.5,4.7,11.5-2.4,7.1-7.1c-8.2-8.6-17.9-15.4-22.4-26.9&#10;&#9;&#9;&#9;&#9;c-1.6,2.1-3.2,4.2-4.8,6.3c13.3,0.2,26.1,3.3,39.5,2.4c3.8-0.3,6.2-4,4.3-7.5c-6.6-12.4-17-22-25-33.4c-1,2.4-2,4.9-3,7.3&#10;&#9;&#9;&#9;&#9;c13.8-2.5,27.9,0.7,41.6-2.7c3.9-1,4.6-5.6,2.2-8.4c-8.9-10.3-21.4-21.4-35.5-23.1C531.8-573.8,531.9-563.8,538.2-563L538.2-563z&#10;&#9;&#9;&#9;&#9;" style="fill: rgb(243, 127, 113);"/>
		</g>
		<g>
			<path class="st2" d="M392.2-341.9c-10-0.7-19.9,2.4-26.6,10.1c-6.7,7.6-7.9,17.9-5.8,27.5c2.6,12.1,12.6,20.9,13,33.9&#10;&#9;&#9;&#9;&#9;c0.4,12.8-12.1,17.9-22.9,19.2c-5.6,0.6-5.2,9.4,0.4,8.7c11.2-1.3,22.4-5.2,28.3-15.5c5.5-9.8,2.4-21.7-2-31.2&#10;&#9;&#9;&#9;&#9;c-2.7-5.7-6.4-10.5-8.1-16.6c-1.3-4.7-1.3-10.1,0.5-14.7c3.8-9.8,14-13.4,23.8-12.6C398.2-332.8,397.8-341.5,392.2-341.9&#10;&#9;&#9;&#9;&#9;L392.2-341.9z" style="fill: rgb(169, 220, 220);"/>
			<path class="st6" d="M503.4-328.2c16.8,4.1,35.2-0.2,50.9-6.5c3.1-1.2,4.6-4.3,3-7.3c-8.1-15.4-21.2-30.1-36.1-39.1&#10;&#9;&#9;&#9;&#9;c-1.8-1.1-4.6-0.9-6.1,0.8c-11.4,13.3-13.3,30.5-15.4,47.3c-0.8,6.4,9.2,6.3,10,0c1.7-13.8,3.1-29.2,12.5-40.2&#10;&#9;&#9;&#9;&#9;c-2,0.3-4,0.5-6.1,0.8c13.5,8.1,25.2,21.5,32.5,35.5c1-2.4,2-4.9,3-7.3c-14,5.6-30.6,10.1-45.6,6.5&#10;&#9;&#9;&#9;&#9;C499.8-339.4,497.1-329.7,503.4-328.2L503.4-328.2z" style="fill: rgb(239, 189, 188);"/>
			<path class="st9" d="M453-249.6c-12.4-6.1-20.1-22-15.5-35.3c2.8-8,11.4-12.2,19.4-12c9.4,0.2,19,5.9,25.6,12.3&#10;&#9;&#9;&#9;&#9;c4.6,4.5,11.7-2.6,7.1-7.1c-16.4-15.9-47.7-23.8-60.3,0.9c-9,17.5,1.8,41.5,18.7,49.8C453.7-238.1,458.8-246.7,453-249.6&#10;&#9;&#9;&#9;&#9;L453-249.6z" style="fill: rgb(218, 207, 97);"/>
			<path class="st3" d="M277.7-388.8c-2,21-3.9,42-5.9,63c-0.4,4,4.5,6,7.5,4.3c20.6-11.2,41.3-22.4,61.9-33.6&#10;&#9;&#9;&#9;&#9;c3.2-1.7,3.3-6.9,0-8.6c-18.7-9.8-37.3-19.6-56-29.4c-5.7-3-10.8,5.6-5,8.6c18.7,9.8,37.3,19.6,56,29.4c0-2.9,0-5.8,0-8.6&#10;&#9;&#9;&#9;&#9;c-20.6,11.2-41.3,22.4-61.9,33.6c2.5,1.4,5,2.9,7.5,4.3c2-21,3.9-42,5.9-63C288.3-395.3,278.3-395.2,277.7-388.8z" style="fill: rgb(128, 197, 106);"/>
			<path class="st7" d="M423.9-351.5c0-12.7,0-25.3,0-38c-2.5,1.4-5,2.9-7.5,4.3c11.9,5.9,23.8,11.9,36.2,16.5&#10;&#9;&#9;&#9;&#9;c2.3,0.9,5.8-0.9,6.2-3.5c1.9-13.5,0.3-26.8,0.2-40.3c0-6.4-10-6.5-10,0c0.1,12.5,1.9,25.2,0.2,37.7c2.1-1.2,4.1-2.3,6.2-3.5&#10;&#9;&#9;&#9;&#9;c-11.6-4.3-22.7-10-33.8-15.5c-3.3-1.7-7.5,0.3-7.5,4.3c0,12.7,0,25.3,0,38C413.9-345.1,423.9-345.1,423.9-351.5L423.9-351.5z" style="fill: rgb(250, 164, 67);"/>
			<path class="st4" d="M257.1-265.9c-7.9,19.8-2.1,43.7,18.4,53.1c19.1,8.7,38.5-3.8,45.1-22.4c3.1-8.9,1.6-19-5.1-25.8&#10;&#9;&#9;&#9;&#9;c-6.6-6.7-16.5-10.6-25.7-7.4c-14.9,5.2-20.8,27.7-4.3,34.9c0.7,0.3,1.4,0.6,2.2,0.9c6.1,2.2,8.7-7.4,2.7-9.6&#10;&#9;&#9;&#9;&#9;c-10.1-3.7-2.8-15.5,4.7-17.2c6-1.4,13.1,3.9,15.8,8.8c3.1,5.6,0.5,13-2.3,18c-6.7,11.8-19.9,16.3-31.7,9.3&#10;&#9;&#9;&#9;&#9;c-14.2-8.3-15.7-25.8-10-39.8C269.2-269.2,259.5-271.8,257.1-265.9L257.1-265.9z" style="fill: rgb(233, 190, 149);"/>
			<path class="st1" d="M324.3-423c23.4,5.1,40.7-20.7,36-42c-1.5-7-7.1-14.1-14.6-14.6c-8.3-0.6-13.1,7.1-14.7,14.3&#10;&#9;&#9;&#9;&#9;c-4.3,19.1,16.9,34.3,33.7,36.2c9.1,1,19.1-1.7,25.2-9c4.7-5.6,6.2-13.5,7-20.5c1.1-9.6,1-24.6-7.9-30.8&#10;&#9;&#9;&#9;&#9;c-9.1-6.3-21.6,3.2-22.3,13c-0.7,11.4,12.8,19.3,21.7,22.8c13,5,28.3,3.3,38.6-6.6c4.7-4.5-2.4-11.5-7.1-7.1&#10;&#9;&#9;&#9;&#9;c-11,10.5-32.9,7.4-41.6-4.9c-2.6-3.7-1.4-8.7,3.9-9.2c0.6-0.1,0.9,0,1.1,0.2c0.9,0.7,1.3,1.5,1.8,2.6c1.5,2.8,1.8,6.4,2,9.5&#10;&#9;&#9;&#9;&#9;c0.5,7-0.1,15-3,21.4c-3.4,7.6-12.7,9.7-20.4,8.4c-8.8-1.6-17.4-7.1-21.8-15c-1.8-3.2-2.2-16.1,2.9-15.3&#10;&#9;&#9;&#9;&#9;c6.8,1.1,6.5,12.4,5.5,17.1c-2.4,11.1-10.9,22.7-23.5,20C320.7-434,318-424.4,324.3-423L324.3-423z" style="fill: rgb(139, 147, 153);"/>
			<path class="st5" d="M217.5-422.2c4.5,0.5,8.9,3.5,12.6,5.9c6,3.9,11.2,9,15.8,14.3c0.7-2.8,1.5-5.6,2.2-8.4&#10;&#9;&#9;&#9;&#9;c-13.6,3.4-27.8,0.2-41.6,2.7c-3,0.5-4.8,4.8-3,7.3c8,11.4,18.5,21.1,25,33.4c1.4-2.5,2.9-5,4.3-7.5c-13.3,0.9-26.2-2.3-39.5-2.4&#10;&#9;&#9;&#9;&#9;c-3,0-6,3.3-4.8,6.3c5.3,13.4,15.3,21.2,25,31.3c4.5,4.7,11.5-2.4,7.1-7.1c-8.2-8.6-17.9-15.4-22.4-26.9&#10;&#9;&#9;&#9;&#9;c-1.6,2.1-3.2,4.2-4.8,6.3c13.3,0.2,26.1,3.3,39.5,2.4c3.8-0.3,6.2-4,4.3-7.5c-6.6-12.4-17-22-25-33.4c-1,2.4-2,4.9-3,7.3&#10;&#9;&#9;&#9;&#9;c13.8-2.5,27.9,0.7,41.6-2.7c3.9-1,4.6-5.6,2.2-8.4c-8.9-10.3-21.4-21.4-35.5-23.1C211.1-433,211.1-423,217.5-422.2L217.5-422.2z&#10;&#9;&#9;&#9;&#9;" style="fill: rgb(243, 127, 113);"/>
			<path class="st8" d="M463.7-453.1c1.2-3.7,6.9-6.1,10.2-7.4c4.3-1.6,9.3-2.8,12.7,0.9c4.4,4.8,2.2,12.5,2.3,18.3&#10;&#9;&#9;&#9;&#9;c0.1,6.7,3.4,13.9,9.2,17.7c8.7,5.8,19-1.2,27.4-4.2c5.3-2,8.1-1.8,11.5,3c4.5,6.2,0.8,13-2.4,18.9c-3.1,5.7,5.5,10.7,8.6,5&#10;&#9;&#9;&#9;&#9;c3.5-6.4,7.1-13.7,5.5-21.2c-1.5-7.1-6.8-14.8-14.2-16.6c-5.8-1.4-11.7,1.2-16.9,3.4c-3.1,1.3-10.9,6.2-14.2,3.4&#10;&#9;&#9;&#9;&#9;c-6.9-5.7-3.7-14.5-4.4-22.2c-0.7-7.5-5.3-14.9-12.6-17.2c-10.8-3.4-28.9,4.5-32.4,15.6C452.1-449.6,461.7-446.9,463.7-453.1&#10;&#9;&#9;&#9;&#9;L463.7-453.1z" style="fill: rgb(238, 225, 195);"/>
		</g>
		<g>
			<path class="st6" d="M182.7-469c16.8,4.1,35.2-0.2,50.9-6.5c3.1-1.2,4.6-4.3,3-7.3c-8.1-15.4-21.2-30.1-36.1-39.1&#10;&#9;&#9;&#9;&#9;c-1.8-1.1-4.6-0.9-6.1,0.8c-11.4,13.3-13.3,30.5-15.4,47.3c-0.8,6.4,9.2,6.3,10,0c1.7-13.8,3.1-29.2,12.5-40.2&#10;&#9;&#9;&#9;&#9;c-2,0.3-4,0.5-6.1,0.8c13.5,8.1,25.2,21.5,32.5,35.5c1-2.4,2-4.9,3-7.3c-14,5.6-30.6,10.1-45.6,6.5&#10;&#9;&#9;&#9;&#9;C179.1-480.1,176.4-470.5,182.7-469L182.7-469z" style="fill: rgb(239, 189, 188);"/>
			<path class="st9" d="M132.3-390.4c-12.4-6.1-20.1-22-15.5-35.3c2.8-8,11.4-12.2,19.4-12c9.4,0.2,19,5.9,25.6,12.3&#10;&#9;&#9;&#9;&#9;c4.6,4.5,11.7-2.6,7.1-7.1c-16.4-15.9-47.7-23.8-60.3,0.9c-9,17.5,1.8,41.5,18.7,49.8C133-378.9,138.1-387.5,132.3-390.4&#10;&#9;&#9;&#9;&#9;L132.3-390.4z" style="fill: rgb(218, 207, 97);"/>
			<path class="st7" d="M103.2-492.3c0-12.7,0-25.3,0-38c-2.5,1.4-5,2.9-7.5,4.3c11.9,5.9,23.8,11.9,36.2,16.5&#10;&#9;&#9;&#9;&#9;c2.3,0.9,5.8-0.9,6.2-3.5c1.9-13.5,0.3-26.8,0.2-40.3c0-6.4-10-6.5-10,0c0.1,12.5,1.9,25.2,0.2,37.7c2.1-1.2,4.1-2.3,6.2-3.5&#10;&#9;&#9;&#9;&#9;c-11.6-4.3-22.7-10-33.8-15.5c-3.3-1.7-7.5,0.3-7.5,4.3c0,12.7,0,25.3,0,38C93.2-485.9,103.2-485.9,103.2-492.3L103.2-492.3z" style="fill: rgb(250, 164, 67);"/>
			<path class="st1" d="M3.6-563.8c23.4,5.1,40.7-20.7,36-42c-1.5-7-7.1-14.1-14.6-14.6c-8.3-0.6-13.1,7.1-14.7,14.3&#10;&#9;&#9;&#9;&#9;C6-587,27.3-571.8,44-570c9.1,1,19.1-1.7,25.2-9c4.7-5.6,6.2-13.5,7-20.5c1.1-9.6,1-24.6-7.9-30.8c-9.1-6.3-21.6,3.2-22.3,13&#10;&#9;&#9;&#9;&#9;c-0.7,11.4,12.8,19.3,21.7,22.8c13,5,28.3,3.3,38.6-6.6c4.7-4.5-2.4-11.5-7.1-7.1c-11,10.5-32.9,7.4-41.6-4.9&#10;&#9;&#9;&#9;&#9;c-2.6-3.7-1.4-8.7,3.9-9.2c0.6-0.1,0.9,0,1.1,0.2c0.9,0.7,1.3,1.5,1.8,2.6c1.5,2.8,1.8,6.4,2,9.5c0.5,7-0.1,15-3,21.4&#10;&#9;&#9;&#9;&#9;c-3.4,7.6-12.7,9.7-20.4,8.3c-8.8-1.6-17.4-7.1-21.8-15c-1.8-3.2-2.2-16.1,2.9-15.3c6.8,1.1,6.5,12.4,5.5,17.1&#10;&#9;&#9;&#9;&#9;c-2.4,11.1-10.9,22.7-23.5,20C0-574.8-2.7-565.1,3.6-563.8L3.6-563.8z" style="fill: rgb(139, 147, 153);"/>
			<path class="st8" d="M142.9-593.9c1.2-3.7,6.9-6.1,10.2-7.4c4.3-1.6,9.3-2.8,12.7,0.9c4.4,4.8,2.2,12.5,2.3,18.3&#10;&#9;&#9;&#9;&#9;c0.1,6.7,3.4,13.9,9.2,17.7c8.7,5.8,19-1.2,27.4-4.2c5.3-2,8.1-1.8,11.5,3c4.5,6.2,0.8,13-2.4,18.9c-3.1,5.7,5.5,10.7,8.6,5&#10;&#9;&#9;&#9;&#9;c3.5-6.4,7.1-13.7,5.5-21.2c-1.5-7.1-6.8-14.8-14.2-16.6c-5.8-1.4-11.7,1.2-16.9,3.4c-3.1,1.3-10.9,6.2-14.2,3.4&#10;&#9;&#9;&#9;&#9;c-6.9-5.7-3.7-14.5-4.4-22.2c-0.7-7.5-5.3-14.9-12.6-17.2c-10.8-3.4-28.9,4.5-32.4,15.6C131.4-590.3,141-587.7,142.9-593.9&#10;&#9;&#9;&#9;&#9;L142.9-593.9z" style="fill: rgb(238, 225, 195);"/>
		</g>
		<g>
			<path class="st2" d="M392.2-623.5c-10-0.7-19.9,2.4-26.6,10.1c-6.7,7.6-7.9,17.9-5.8,27.5c2.6,12.1,12.6,20.9,13,33.9&#10;&#9;&#9;&#9;&#9;c0.4,12.8-12.1,17.9-22.9,19.2c-5.6,0.6-5.2,9.4,0.4,8.7c11.2-1.3,22.4-5.2,28.3-15.5c5.5-9.8,2.4-21.7-2-31.2&#10;&#9;&#9;&#9;&#9;c-2.7-5.7-6.4-10.5-8.1-16.6c-1.3-4.7-1.3-10.1,0.5-14.7c3.8-9.8,14-13.4,23.8-12.6C398.2-614.4,397.8-623.1,392.2-623.5&#10;&#9;&#9;&#9;&#9;L392.2-623.5z" style="fill: rgb(169, 220, 220);"/>
			<path class="st6" d="M503.4-609.7c16.8,4.1,35.2-0.2,50.9-6.5c3.1-1.2,4.6-4.3,3-7.3c-8.1-15.4-21.2-30.1-36.1-39.1&#10;&#9;&#9;&#9;&#9;c-1.8-1.1-4.6-0.9-6.1,0.8c-11.4,13.3-13.3,30.5-15.4,47.3c-0.8,6.4,9.2,6.3,10,0c1.7-13.8,3.1-29.2,12.5-40.2&#10;&#9;&#9;&#9;&#9;c-2,0.3-4,0.5-6.1,0.8c13.5,8.1,25.2,21.5,32.5,35.5c1-2.4,2-4.9,3-7.3c-14,5.6-30.6,10.1-45.6,6.5&#10;&#9;&#9;&#9;&#9;C499.8-620.9,497.1-611.3,503.4-609.7L503.4-609.7z" style="fill: rgb(239, 189, 188);"/>
			<path class="st9" d="M453-531.1c-12.4-6.1-20.1-22-15.5-35.3c2.8-8,11.4-12.2,19.4-12c9.4,0.2,19,5.9,25.6,12.3&#10;&#9;&#9;&#9;&#9;c4.6,4.5,11.7-2.6,7.1-7.1c-16.4-15.9-47.7-23.8-60.3,0.9c-9,17.5,1.8,41.5,18.7,49.8C453.7-519.7,458.8-528.3,453-531.1&#10;&#9;&#9;&#9;&#9;L453-531.1z" style="fill: rgb(218, 207, 97);"/>
			<path class="st3" d="M277.7-670.4c-2,21-3.9,42-5.9,63c-0.4,4,4.5,6,7.5,4.3c20.6-11.2,41.3-22.4,61.9-33.6&#10;&#9;&#9;&#9;&#9;c3.2-1.7,3.3-6.9,0-8.6c-18.7-9.8-37.3-19.6-56-29.4c-5.7-3-10.8,5.6-5,8.6c18.7,9.8,37.3,19.6,56,29.4c0-2.9,0-5.8,0-8.6&#10;&#9;&#9;&#9;&#9;c-20.6,11.2-41.3,22.4-61.9,33.6c2.5,1.4,5,2.9,7.5,4.3c2-21,3.9-42,5.9-63C288.3-676.8,278.3-676.8,277.7-670.4z" style="fill: rgb(128, 197, 106);"/>
			<path class="st4" d="M257.1-547.4c-7.9,19.8-2.1,43.7,18.4,53.1c19.1,8.7,38.5-3.8,45.1-22.4c3.1-8.9,1.6-19-5.1-25.8&#10;&#9;&#9;&#9;&#9;c-6.6-6.7-16.5-10.6-25.7-7.4c-14.9,5.2-20.8,27.7-4.3,34.9c0.7,0.3,1.4,0.6,2.2,0.9c6.1,2.2,8.7-7.4,2.7-9.6&#10;&#9;&#9;&#9;&#9;c-10.1-3.7-2.8-15.5,4.7-17.2c6-1.4,13.1,3.9,15.8,8.8c3.1,5.6,0.5,13-2.3,18c-6.7,11.8-19.9,16.3-31.7,9.3&#10;&#9;&#9;&#9;&#9;c-14.2-8.3-15.7-25.8-10-39.8C269.2-550.7,259.5-553.3,257.1-547.4L257.1-547.4z" style="fill: rgb(233, 190, 149);"/>
			<path class="st5" d="M217.5-703.8c4.5,0.5,8.9,3.5,12.6,5.9c6,3.9,11.2,9,15.8,14.3c0.7-2.8,1.5-5.6,2.2-8.4&#10;&#9;&#9;&#9;&#9;c-13.6,3.4-27.8,0.2-41.6,2.7c-3,0.5-4.8,4.8-3,7.3c8,11.4,18.5,21.1,25,33.4c1.4-2.5,2.9-5,4.3-7.5c-13.3,0.9-26.2-2.3-39.5-2.4&#10;&#9;&#9;&#9;&#9;c-3,0-6,3.3-4.8,6.3c5.3,13.4,15.3,21.2,25,31.3c4.5,4.7,11.5-2.4,7.1-7.1c-8.2-8.6-17.9-15.4-22.4-26.9&#10;&#9;&#9;&#9;&#9;c-1.6,2.1-3.2,4.2-4.8,6.3c13.3,0.2,26.1,3.3,39.5,2.4c3.8-0.3,6.2-4,4.3-7.5c-6.6-12.4-17-22-25-33.4c-1,2.4-2,4.9-3,7.3&#10;&#9;&#9;&#9;&#9;c13.8-2.5,27.9,0.7,41.6-2.7c3.9-1,4.6-5.6,2.2-8.4c-8.9-10.3-21.4-21.4-35.5-23.1C211.1-714.6,211.1-704.6,217.5-703.8&#10;&#9;&#9;&#9;&#9;L217.5-703.8z" style="fill: rgb(243, 127, 113);"/>
		</g>
	</g>
</pattern>
<path d="M 0 0 H 1400 V 980 H 0 V 0 Z" class="st10" style="fill: rgb(247, 239, 226);"/>
<path d="M 0 0 H 1400 V 980 H 0 V 0 Z" class="st11" style="fill: url('#New_Pattern_2');"/>
</svg>